<svg id="visual" viewBox="0 0 900 600" width="900" height="600" xmlns="http://www.w3.org/2000/svg" xmlns:xlink="http://www.w3.org/1999/xlink" version="1.1"><g transform="translate(454.64421542344667 297.04021668304085)"><path d="M111.5 -200.8C148 -172.1 183.6 -149.3 207.8 -116.8C232.1 -84.3 245 -42.2 251.1 3.5C257.2 49.2 256.3 98.3 238.3 141.6C220.3 184.9 185.2 222.4 142.6 246C100 269.5 50 279.3 5.4 269.9C-39.2 260.5 -78.3 232 -119.2 207.4C-160 182.8 -202.6 162.2 -229 128.3C-255.4 94.3 -265.7 47.2 -263.5 1.3C-261.4 -44.7 -246.7 -89.3 -221.2 -124.8C-195.7 -160.3 -159.4 -186.7 -120.7 -214.2C-82 -241.7 -41 -270.3 -1.7 -267.3C37.5 -264.3 75 -229.6 111.5 -200.8" fill="#eb75a4"></path></g></svg>